<svg xmlns="http://www.w3.org/2000/svg" viewBox="0 0 1920 1080" width="1920" height="1080">
  <defs>
    <linearGradient id="bg" x1="0%" y1="0%" x2="0%" y2="100%">
      <stop offset="0%" style="stop-color:#0a0a1a"/>
      <stop offset="100%" style="stop-color:#1a1a3a"/>
    </linearGradient>
  </defs>
  <rect width="1920" height="1080" fill="url(#bg)"/>

  <!-- Brain icon -->
  <ellipse cx="960" cy="400" rx="180" ry="150" fill="#9966ff" fill-opacity="0.2" stroke="#9966ff" stroke-width="4"/>
  <path d="M880 350 Q880 300 920 300 Q960 300 960 350" stroke="#9966ff" stroke-width="3" fill="none"/>
  <path d="M960 350 Q960 300 1000 300 Q1040 300 1040 350" stroke="#9966ff" stroke-width="3" fill="none"/>
  <path d="M860 400 Q820 400 820 450 Q820 500 860 500" stroke="#9966ff" stroke-width="3" fill="none"/>
  <path d="M1060 400 Q1100 400 1100 450 Q1100 500 1060 500" stroke="#9966ff" stroke-width="3" fill="none"/>

  <!-- Question marks -->
  <text x="750" y="320" font-family="Arial" font-size="72" fill="#44ff88">?</text>
  <text x="1120" y="350" font-family="Arial" font-size="72" fill="#44ff88">?</text>
  <text x="850" y="550" font-family="Arial" font-size="72" fill="#44ff88">?</text>
  <text x="1050" y="520" font-family="Arial" font-size="72" fill="#44ff88">?</text>

  <!-- Title -->
  <text x="960" y="750" font-family="Arial" font-size="56" fill="#ffffff" text-anchor="middle">What Does AI Learn?</text>
  <text x="960" y="830" font-family="Arial" font-size="32" fill="#888888" text-anchor="middle">Opening the training black box</text>
</svg>
