<svg xmlns="http://www.w3.org/2000/svg" viewBox="0 0 1920 1080" width="1920" height="1080">
  <defs>
    <linearGradient id="bg" x1="0%" y1="0%" x2="0%" y2="100%">
      <stop offset="0%" style="stop-color:#0a0a1a"/>
      <stop offset="100%" style="stop-color:#1a1a3a"/>
    </linearGradient>
  </defs>
  <rect width="1920" height="1080" fill="url(#bg)"/>

  <text x="960" y="120" font-family="Arial" font-size="48" fill="#ffffff" text-anchor="middle">Opening the Box</text>

  <!-- Open box with light rays -->
  <rect x="600" y="300" width="600" height="400" rx="20" fill="#1a1a2a" stroke="#44ff88" stroke-width="4"/>

  <!-- Light rays coming out -->
  <path d="M900 300 L900 150" stroke="#44ff88" stroke-width="3" stroke-dasharray="10,5"/>
  <path d="M750 320 L650 180" stroke="#44ff88" stroke-width="3" stroke-dasharray="10,5"/>
  <path d="M1050 320 L1150 180" stroke="#44ff88" stroke-width="3" stroke-dasharray="10,5"/>

  <!-- Inside visualization preview -->
  <rect x="650" y="350" width="500" height="300" rx="10" fill="#0a0a1a" stroke="#666666" stroke-width="2"/>

  <!-- Mini grid cells -->
  <g transform="translate(680, 450)">
    <rect x="0" y="0" width="44" height="44" fill="#2a2a4a" stroke="#444466" stroke-width="2"/>
    <rect x="46" y="0" width="44" height="44" fill="#2a2a4a" stroke="#444466" stroke-width="2"/>
    <rect x="92" y="0" width="44" height="44" fill="#2a2a4a" stroke="#444466" stroke-width="2"/>
    <rect x="138" y="0" width="44" height="44" fill="#2a2a4a" stroke="#444466" stroke-width="2"/>
    <rect x="184" y="0" width="44" height="44" fill="#44ff88" fill-opacity="0.3" stroke="#44ff88" stroke-width="2"/>
    <rect x="230" y="0" width="44" height="44" fill="#2a2a4a" stroke="#444466" stroke-width="2"/>
    <rect x="276" y="0" width="44" height="44" fill="#2a2a4a" stroke="#444466" stroke-width="2"/>
    <rect x="322" y="0" width="44" height="44" fill="#2a2a4a" stroke="#444466" stroke-width="2"/>
    <rect x="368" y="0" width="44" height="44" fill="#2a2a4a" stroke="#444466" stroke-width="2"/>
    <rect x="414" y="0" width="44" height="44" fill="#ff8844" fill-opacity="0.3" stroke="#ff8844" stroke-width="2"/>
    <!-- Person icon -->
    <circle cx="206" cy="22" r="12" fill="#44ff88"/>
    <!-- Key icon -->
    <text x="116" y="32" font-family="Arial" font-size="24">🔑</text>
    <!-- Door icon -->
    <text x="424" y="32" font-family="Arial" font-size="24">🚪</text>
  </g>

  <!-- Progress bars preview -->
  <text x="700" y="560" font-family="Arial" font-size="18" fill="#9966ff">Planner:</text>
  <rect x="790" y="545" width="200" height="16" fill="#1a1a2a" stroke="#9966ff" stroke-width="1"/>
  <rect x="790" y="545" width="140" height="16" fill="#9966ff" fill-opacity="0.5"/>

  <text x="700" y="600" font-family="Arial" font-size="18" fill="#44ff88">Doer:</text>
  <rect x="790" y="585" width="200" height="16" fill="#1a1a2a" stroke="#44ff88" stroke-width="1"/>
  <rect x="790" y="585" width="100" height="16" fill="#44ff88" fill-opacity="0.5"/>

  <!-- Bottom text -->
  <text x="960" y="800" font-family="Arial" font-size="36" fill="#44ff88" text-anchor="middle">Watch AI Learn in Real Time</text>
</svg>
