<svg xmlns="http://www.w3.org/2000/svg" viewBox="0 0 1920 1080" width="1920" height="1080">
  <defs>
    <linearGradient id="bg" x1="0%" y1="0%" x2="0%" y2="100%">
      <stop offset="0%" style="stop-color:#0a0a1a"/>
      <stop offset="100%" style="stop-color:#1a1a3a"/>
    </linearGradient>
  </defs>
  <rect width="1920" height="1080" fill="url(#bg)"/>

  <text x="960" y="120" font-family="Arial" font-size="56" fill="#ffffff" text-anchor="middle">Try It Yourself</text>

  <!-- Main CTA -->
  <g transform="translate(460, 200)">
    <rect x="0" y="0" width="1000" height="200" rx="25" fill="#44ff88" fill-opacity="0.15" stroke="#44ff88" stroke-width="4"/>
    <text x="500" y="80" font-family="Arial" font-size="32" fill="#44ff88" text-anchor="middle">Interactive Visualization</text>
    <rect x="200" y="110" width="600" height="60" rx="10" fill="#1a1a2a" stroke="#44ff88" stroke-width="2"/>
    <text x="500" y="150" font-family="monospace" font-size="22" fill="#44ff88" text-anchor="middle">github.com/softwarewrighter/viz-hrm-ft</text>
  </g>

  <!-- Research papers -->
  <text x="960" y="480" font-family="Arial" font-size="32" fill="#888888" text-anchor="middle">Research Papers</text>

  <g transform="translate(200, 520)">
    <rect x="0" y="0" width="480" height="140" rx="15" fill="#1a1a2a" stroke="#9966ff" stroke-width="2"/>
    <text x="240" y="45" font-family="Arial" font-size="24" fill="#9966ff" text-anchor="middle">HRM Paper</text>
    <rect x="40" y="70" width="400" height="45" rx="8" fill="#0a0a1a" stroke="#666666" stroke-width="1"/>
    <text x="240" y="100" font-family="monospace" font-size="16" fill="#888888" text-anchor="middle">arxiv.org/abs/2506.21734</text>
  </g>

  <g transform="translate(720, 520)">
    <rect x="0" y="0" width="480" height="140" rx="15" fill="#1a1a2a" stroke="#44ff88" stroke-width="2"/>
    <text x="240" y="45" font-family="Arial" font-size="24" fill="#44ff88" text-anchor="middle">TRM Paper</text>
    <rect x="40" y="70" width="400" height="45" rx="8" fill="#0a0a1a" stroke="#666666" stroke-width="1"/>
    <text x="240" y="100" font-family="monospace" font-size="16" fill="#888888" text-anchor="middle">arxiv.org/abs/2510.04871</text>
  </g>

  <g transform="translate(1240, 520)">
    <rect x="0" y="0" width="480" height="140" rx="15" fill="#1a1a2a" stroke="#ff8844" stroke-width="2"/>
    <text x="240" y="45" font-family="Arial" font-size="24" fill="#ff8844" text-anchor="middle">BabyAI Paper</text>
    <rect x="40" y="70" width="400" height="45" rx="8" fill="#0a0a1a" stroke="#666666" stroke-width="1"/>
    <text x="240" y="100" font-family="monospace" font-size="16" fill="#888888" text-anchor="middle">arxiv.org/abs/1810.08272</text>
  </g>

  <!-- Video summary icons -->
  <g transform="translate(450, 720)">
    <text x="500" y="0" font-family="Arial" font-size="24" fill="#666666" text-anchor="middle">What we covered:</text>

    <g transform="translate(0, 30)">
      <rect x="0" y="0" width="200" height="80" rx="10" fill="#44ff88" fill-opacity="0.1" stroke="#44ff88" stroke-width="2"/>
      <text x="100" y="55" font-family="Arial" font-size="40" text-anchor="middle">🔑🚪</text>
    </g>

    <g transform="translate(250, 30)">
      <rect x="0" y="0" width="200" height="80" rx="10" fill="#9966ff" fill-opacity="0.1" stroke="#9966ff" stroke-width="2"/>
      <text x="100" y="55" font-family="Arial" font-size="40" text-anchor="middle">🧠⚡</text>
    </g>

    <g transform="translate(500, 30)">
      <rect x="0" y="0" width="200" height="80" rx="10" fill="#ff8844" fill-opacity="0.1" stroke="#ff8844" stroke-width="2"/>
      <text x="100" y="55" font-family="Arial" font-size="40" text-anchor="middle">📊📈</text>
    </g>

    <g transform="translate(750, 30)">
      <rect x="0" y="0" width="200" height="80" rx="10" fill="#ffcc00" fill-opacity="0.1" stroke="#ffcc00" stroke-width="2"/>
      <text x="100" y="55" font-family="Arial" font-size="40" text-anchor="middle">💡</text>
    </g>
  </g>

  <text x="960" y="920" font-family="Arial" font-size="36" fill="#44ff88" text-anchor="middle">Thanks for watching!</text>
</svg>
