<svg xmlns="http://www.w3.org/2000/svg" viewBox="0 0 1920 1080">
  <defs>
    <filter id="glow" x="-20%" y="-20%" width="140%" height="140%">
      <feGaussianBlur stdDeviation="4" result="blur"/>
      <feMerge>
        <feMergeNode in="blur"/>
        <feMergeNode in="SourceGraphic"/>
      </feMerge>
    </filter>
  </defs>

  <!-- Dark background -->
  <rect width="1920" height="1080" fill="#0a0a0a"/>

  <!-- Vector Arcade Platform header image -->
  <image href="../images/vector-arcade-platform.png" x="310" y="130" width="1300" height="100"/>

  <!-- ASTEROIDS - Large centered vector text -->
  <g fill="none" stroke="#ffffff" stroke-width="8" stroke-linecap="square" filter="url(#glow)" transform="translate(960, 540)">
    <!-- A -->
    <path d="M-580,120 L-540,-120 L-500,120 M-565,60 L-515,60"/>
    <!-- S -->
    <path d="M-440,-120 L-480,-120 L-480,0 L-440,0 L-440,120 L-480,120"/>
    <!-- T -->
    <path d="M-400,-120 L-320,-120 M-360,-120 L-360,120"/>
    <!-- E -->
    <path d="M-280,-120 L-280,120 M-280,-120 L-200,-120 M-280,0 L-220,0 M-280,120 L-200,120"/>
    <!-- R -->
    <path d="M-160,-120 L-160,120 M-160,-120 L-100,-120 Q-60,-120 -60,-60 Q-60,0 -100,0 L-160,0 M-100,0 L-50,120"/>
    <!-- O -->
    <path d="M0,-120 L80,-120 L80,120 L0,120 Z"/>
    <!-- I -->
    <path d="M130,-120 L130,120"/>
    <!-- D -->
    <path d="M180,-120 L180,120 M180,-120 L240,-120 Q300,-120 300,0 Q300,120 240,120 L180,120"/>
    <!-- S -->
    <path d="M360,-120 L400,-120 L400,0 L360,0 L360,120 L400,120"/>
  </g>

  <!-- Decorative asteroids elements -->
  <g stroke="#ffffff" stroke-width="4" fill="none" opacity="0.3">
    <!-- Ship -->
    <g transform="translate(960, 900)">
      <path d="M0,-25 L20,25 L0,15 L-20,25 Z"/>
    </g>
    <!-- Asteroid 1 -->
    <g transform="translate(200, 850)">
      <path d="M-20,-15 L10,-20 L25,-5 L20,15 L-5,20 L-25,10 Z"/>
    </g>
    <!-- Asteroid 2 -->
    <g transform="translate(1700, 880)">
      <path d="M-15,-20 L15,-15 L20,10 L5,25 L-20,15 L-25,-5 Z"/>
    </g>
  </g>

  <!-- Avatar safe zone kept clear: x=1400-1920, y=800-1080 -->
</svg>
