<svg xmlns="http://www.w3.org/2000/svg" viewBox="0 0 1920 1080">
  <defs>
    <filter id="glow" x="-20%" y="-20%" width="140%" height="140%">
      <feGaussianBlur stdDeviation="4" result="blur"/>
      <feMerge>
        <feMergeNode in="blur"/>
        <feMergeNode in="SourceGraphic"/>
      </feMerge>
    </filter>
  </defs>

  <!-- Dark background -->
  <rect width="1920" height="1080" fill="#0a0a0a"/>

  <!-- Vector Arcade Platform header image -->
  <image href="../images/vector-arcade-platform.png" x="310" y="130" width="1300" height="100"/>

  <!-- BATTLEZONE - Large centered in GREEN (the game's signature color) -->
  <g fill="none" stroke="#4ade80" stroke-width="8" stroke-linecap="square" filter="url(#glow)" transform="translate(960, 540)">
    <!-- B -->
    <path d="M-560,-100 L-560,100 M-560,-100 L-500,-100 Q-460,-100 -460,-50 Q-460,0 -500,0 L-560,0 M-560,0 L-490,0 Q-440,0 -440,50 Q-440,100 -490,100 L-560,100"/>
    <!-- A -->
    <path d="M-380,100 L-340,-100 L-300,100 M-368,40 L-312,40"/>
    <!-- T -->
    <path d="M-240,-100 L-140,-100 M-190,-100 L-190,100"/>
    <!-- T -->
    <path d="M-80,-100 L20,-100 M-30,-100 L-30,100"/>
    <!-- L -->
    <path d="M80,-100 L80,100 L160,100"/>
    <!-- E -->
    <path d="M220,-100 L220,100 M220,-100 L300,-100 M220,0 L280,0 M220,100 L300,100"/>
    <!-- Z -->
    <path d="M360,-100 L460,-100 L360,100 L460,100"/>
    <!-- O -->
    <path d="M520,-100 L600,-100 L600,100 L520,100 Z"/>
    <!-- N -->
    <path d="M660,-100 L660,100 M660,-100 L740,100 M740,-100 L740,100"/>
    <!-- E -->
    <path d="M800,-100 L800,100 M800,-100 L880,-100 M800,0 L860,0 M800,100 L880,100"/>
  </g>

  <!-- Decorative tank silhouette -->
  <g transform="translate(960, 850)" stroke="#4ade80" stroke-width="4" fill="none" opacity="0.3">
    <path d="M-50,20 L-50,-10 L-30,-10 L-30,-25 L30,-25 L30,-10 L50,-10 L50,20 Z"/>
    <line x1="0" y1="-25" x2="0" y2="-50"/>
  </g>

  <!-- Avatar safe zone kept clear -->
</svg>
