<svg xmlns="http://www.w3.org/2000/svg" viewBox="0 0 1920 1080">
  <defs>
    <filter id="glow" x="-20%" y="-20%" width="140%" height="140%">
      <feGaussianBlur stdDeviation="4" result="blur"/>
      <feMerge>
        <feMergeNode in="blur"/>
        <feMergeNode in="SourceGraphic"/>
      </feMerge>
    </filter>
  </defs>

  <!-- Dark background -->
  <rect width="1920" height="1080" fill="#0a0a0a"/>

  <!-- Vector Arcade Platform header image -->
  <image href="../images/vector-arcade-platform.png" x="310" y="130" width="1300" height="100"/>

  <!-- TEMPEST - Large centered MULTICOLORED (the game's signature) -->
  <g fill="none" stroke-width="8" stroke-linecap="square" filter="url(#glow)" transform="translate(960, 540)">
    <!-- T - Red -->
    <path stroke="#ff6b6b" d="M-400,-100 L-280,-100 M-340,-100 L-340,100"/>
    <!-- E - Orange -->
    <path stroke="#ff8800" d="M-220,-100 L-220,100 M-220,-100 L-140,-100 M-220,0 L-160,0 M-220,100 L-140,100"/>
    <!-- M - Yellow -->
    <path stroke="#ffd93d" d="M-80,-100 L-80,100 M-80,-100 L0,20 L80,-100 M80,-100 L80,100"/>
    <!-- P - Green -->
    <path stroke="#4ade80" d="M140,-100 L140,100 M140,-100 L220,-100 Q280,-100 280,-50 Q280,0 220,0 L140,0"/>
    <!-- E - Cyan -->
    <path stroke="#00d4ff" d="M340,-100 L340,100 M340,-100 L420,-100 M340,0 L400,0 M340,100 L420,100"/>
    <!-- S - Blue -->
    <path stroke="#6b8aff" d="M540,-100 L480,-100 L480,0 L540,0 L540,100 L480,100"/>
    <!-- T - Purple -->
    <path stroke="#a855f7" d="M600,-100 L720,-100 M660,-100 L660,100"/>
  </g>

  <!-- Decorative tempest tube -->
  <g transform="translate(960, 850)" stroke-width="4" fill="none" opacity="0.3">
    <path stroke="#ff6b6b" d="M-60,30 L-40,-30"/>
    <path stroke="#ffd93d" d="M-40,-30 L0,-40"/>
    <path stroke="#4ade80" d="M0,-40 L40,-30"/>
    <path stroke="#00d4ff" d="M40,-30 L60,30"/>
    <path stroke="#a855f7" d="M-60,30 L60,30"/>
  </g>

  <!-- Avatar safe zone kept clear -->
</svg>
