<svg xmlns="http://www.w3.org/2000/svg" viewBox="0 0 1920 1080" width="1920" height="1080">
  <defs>
    <linearGradient id="bg16" x1="0%" y1="0%" x2="0%" y2="100%">
      <stop offset="0%" style="stop-color:#0a0a1a"/>
      <stop offset="100%" style="stop-color:#1a1a3a"/>
    </linearGradient>
  </defs>
  <rect width="1920" height="1080" fill="url(#bg16)"/>

  <!-- GitHub logo -->
  <circle cx="960" cy="300" r="120" fill="#ffffff"/>
  <path d="M960 200 C900 200 850 250 850 310 C850 358 882 398 925 410 C932 412 935 407 935 403 L935 375 C895 383 888 358 888 358 C882 345 873 340 873 340 C860 330 874 331 874 331 C889 332 897 347 897 347 C910 368 932 362 936 358 C937 348 942 342 947 338 C915 335 880 322 880 280 C880 268 885 258 892 250 C891 247 886 235 894 220 C894 220 906 217 935 232 C946 229 958 228 970 228 C982 228 994 229 1005 232 C1034 217 1046 220 1046 220 C1054 235 1049 247 1048 250 C1055 258 1060 268 1060 280 C1060 322 1025 335 993 338 C1000 344 1005 355 1005 372 L1005 403 C1005 407 1008 412 1015 410 C1058 398 1090 358 1090 310 C1090 250 1030 200 960 200" fill="#0a0a1a"/>

  <!-- Repo name -->
  <text x="960" y="500" font-family="Arial" font-size="48" fill="#ffffff" text-anchor="middle" font-weight="bold">github.com/softwarewrighter</text>
  <text x="960" y="580" font-family="Arial" font-size="64" fill="#44ff88" text-anchor="middle" font-weight="bold">rlm-project</text>

  <!-- Open source badge -->
  <rect x="810" y="650" width="300" height="60" fill="#238636" rx="30"/>
  <text x="960" y="692" font-family="Arial" font-size="28" fill="#ffffff" text-anchor="middle" font-weight="bold">Open Source</text>

  <!-- Stars/fork indicators -->
  <g fill="#ffcc44">
    <polygon points="700,770 710,800 740,800 715,820 725,850 700,830 675,850 685,820 660,800 690,800" transform="scale(0.6) translate(500,400)"/>
  </g>
  <text x="760" y="780" font-family="Arial" font-size="24" fill="#888888">MIT License</text>

  <!-- Bottom text -->
  <text x="960" y="900" font-family="Arial" font-size="32" fill="#888888" text-anchor="middle">Implementation of the RLM paper</text>
</svg>
