<svg xmlns="http://www.w3.org/2000/svg" viewBox="0 0 1920 1080" width="1920" height="1080">
  <defs>
    <linearGradient id="bg18" x1="0%" y1="0%" x2="0%" y2="100%">
      <stop offset="0%" style="stop-color:#0a0a1a"/>
      <stop offset="100%" style="stop-color:#1a1a3a"/>
    </linearGradient>
  </defs>
  <rect width="1920" height="1080" fill="url(#bg18)"/>

  <!-- Title -->
  <text x="960" y="100" font-family="Arial" font-size="48" fill="#ffcc44" text-anchor="middle" font-weight="bold">Think of it like this...</text>

  <!-- Giant cookie jar -->
  <ellipse cx="960" cy="800" rx="350" ry="60" fill="#8b4513"/>
  <path d="M610 800 L610 350 Q610 280 680 280 L1240 280 Q1310 280 1310 350 L1310 800" fill="none" stroke="#8b4513" stroke-width="30"/>
  <ellipse cx="960" cy="280" rx="350" ry="60" fill="#a0522d"/>

  <!-- Lid slightly open -->
  <ellipse cx="960" cy="230" rx="320" ry="50" fill="#6b3510" transform="rotate(-10, 960, 230)"/>

  <!-- Cookies inside visible -->
  <g fill="#d2691e">
    <circle cx="800" cy="450" r="50"/>
    <circle cx="920" cy="420" r="50"/>
    <circle cx="1050" cy="460" r="50"/>
    <circle cx="870" cy="550" r="50"/>
    <circle cx="1000" cy="530" r="50"/>
    <circle cx="1120" cy="570" r="50"/>
    <circle cx="760" cy="640" r="50"/>
    <circle cx="900" cy="650" r="50"/>
    <circle cx="1020" cy="630" r="50"/>
    <circle cx="1150" cy="660" r="50"/>
    <circle cx="830" cy="740" r="50"/>
    <circle cx="960" cy="720" r="50"/>
    <circle cx="1090" cy="750" r="50"/>
  </g>

  <!-- Chocolate chips on some cookies -->
  <g fill="#3d2314">
    <circle cx="790" cy="445" r="10"/>
    <circle cx="810" cy="460" r="8"/>
    <circle cx="915" cy="415" r="10"/>
    <circle cx="930" cy="430" r="8"/>
    <circle cx="1045" cy="455" r="10"/>
    <circle cx="1060" cy="470" r="8"/>
  </g>

  <!-- Label -->
  <text x="960" y="950" font-family="Arial" font-size="40" fill="#d2691e" text-anchor="middle">A giant cookie jar</text>
</svg>
