<svg xmlns="http://www.w3.org/2000/svg" viewBox="0 0 1920 1080" width="1920" height="1080">
  <defs>
    <linearGradient id="bg22a" x1="0%" y1="0%" x2="0%" y2="100%">
      <stop offset="0%" style="stop-color:#0a0a1a"/>
      <stop offset="100%" style="stop-color:#1a1a3a"/>
    </linearGradient>
  </defs>
  <rect width="1920" height="1080" fill="url(#bg22a)"/>

  <!-- Title -->
  <text x="960" y="100" font-family="Arial" font-size="48" fill="#ffffff" text-anchor="middle" font-weight="bold">Benchmarks from the MIT Paper</text>

  <!-- Paper reference -->
  <rect x="460" y="180" width="1000" height="200" fill="#1a2a3a" stroke="#8b0000" stroke-width="4" rx="15"/>
  <text x="960" y="250" font-family="Arial" font-size="32" fill="#8b0000" text-anchor="middle">arXiv:2512.24601</text>
  <text x="960" y="310" font-family="Arial" font-size="28" fill="#ffffff" text-anchor="middle">Recursive Language Models</text>
  <text x="960" y="350" font-family="Arial" font-size="22" fill="#888888" text-anchor="middle">Massachusetts Institute of Technology</text>

  <!-- Model icons -->
  <text x="960" y="480" font-family="Arial" font-size="32" fill="#888888" text-anchor="middle">Tested across multiple models:</text>

  <!-- Model boxes -->
  <rect x="250" y="540" width="300" height="100" fill="#1a3a2a" stroke="#44ff88" stroke-width="2" rx="10"/>
  <text x="400" y="600" font-family="Arial" font-size="32" fill="#44ff88" text-anchor="middle">GPT-4</text>

  <rect x="610" y="540" width="300" height="100" fill="#2a2a1a" stroke="#ffcc44" stroke-width="2" rx="10"/>
  <text x="760" y="600" font-family="Arial" font-size="32" fill="#ffcc44" text-anchor="middle">Claude</text>

  <rect x="970" y="540" width="300" height="100" fill="#1a2a3a" stroke="#4488ff" stroke-width="2" rx="10"/>
  <text x="1120" y="600" font-family="Arial" font-size="32" fill="#4488ff" text-anchor="middle">Llama</text>

  <rect x="1330" y="540" width="300" height="100" fill="#2a1a2a" stroke="#ff88ff" stroke-width="2" rx="10"/>
  <text x="1480" y="600" font-family="Arial" font-size="32" fill="#ff88ff" text-anchor="middle">Mistral</text>

  <!-- Checkmarks -->
  <g fill="#44ff88">
    <circle cx="400" cy="680" r="20"/>
    <circle cx="760" cy="680" r="20"/>
    <circle cx="1120" cy="680" r="20"/>
    <circle cx="1480" cy="680" r="20"/>
  </g>

  <!-- Bottom text -->
  <text x="960" y="800" font-family="Arial" font-size="28" fill="#888888" text-anchor="middle">Consistent results across all tested models</text>
  <text x="960" y="860" font-family="Arial" font-size="24" fill="#666688" text-anchor="middle">Full methodology and data in the paper</text>
</svg>
