<svg xmlns="http://www.w3.org/2000/svg" viewBox="0 0 1920 1080">
  <defs>
    <filter id="glow" x="-20%" y="-20%" width="140%" height="140%">
      <feGaussianBlur stdDeviation="3" result="blur"/>
      <feMerge>
        <feMergeNode in="blur"/>
        <feMergeNode in="SourceGraphic"/>
      </feMerge>
    </filter>
  </defs>

  <!-- Dark background -->
  <rect width="1920" height="1080" fill="#0a0a0a"/>

  <!-- Title text -->
  <text x="960" y="420" font-family="Arial Black, sans-serif" font-size="96"
        fill="#4ade80" text-anchor="middle" filter="url(#glow)">
    Neural Network RS
  </text>

  <!-- Subtitle -->
  <text x="960" y="520" font-family="Arial, sans-serif" font-size="48"
        fill="#00d4ff" text-anchor="middle">
    Interactive Learning Platform
  </text>

  <!-- Subscribe text -->
  <text x="960" y="700" font-family="Arial, sans-serif" font-size="36" fill="#888888" text-anchor="middle">
    Subscribe for more ML and Rust content
  </text>

  <!-- Decorative neural network nodes -->
  <g fill="#4ade80" opacity="0.2" transform="translate(960, 850)">
    <circle cx="-100" cy="0" r="15"/>
    <circle cx="-50" cy="-30" r="12"/>
    <circle cx="-50" cy="30" r="12"/>
    <circle cx="0" cy="0" r="15"/>
    <circle cx="50" cy="-30" r="12"/>
    <circle cx="50" cy="30" r="12"/>
    <circle cx="100" cy="0" r="15"/>
    <line x1="-85" y1="0" x2="-62" y2="-25" stroke="#4ade80" stroke-width="4"/>
    <line x1="-85" y1="0" x2="-62" y2="25" stroke="#4ade80" stroke-width="4"/>
    <line x1="-38" y1="-25" x2="-12" y2="0" stroke="#4ade80" stroke-width="4"/>
    <line x1="-38" y1="25" x2="-12" y2="0" stroke="#4ade80" stroke-width="4"/>
    <line x1="12" y1="0" x2="38" y2="-25" stroke="#4ade80" stroke-width="4"/>
    <line x1="12" y1="0" x2="38" y2="25" stroke="#4ade80" stroke-width="4"/>
    <line x1="62" y1="-25" x2="85" y2="0" stroke="#4ade80" stroke-width="4"/>
    <line x1="62" y1="25" x2="85" y2="0" stroke="#4ade80" stroke-width="4"/>
  </g>
</svg>
