<svg xmlns="http://www.w3.org/2000/svg" viewBox="0 0 1920 1080">
  <defs>
    <linearGradient id="bg" x1="0%" y1="0%" x2="100%" y2="100%">
      <stop offset="0%" style="stop-color:#282a36"/>
      <stop offset="100%" style="stop-color:#1a1a2e"/>
    </linearGradient>
    <filter id="glow">
      <feGaussianBlur stdDeviation="4" result="coloredBlur"/>
      <feMerge>
        <feMergeNode in="coloredBlur"/>
        <feMergeNode in="SourceGraphic"/>
      </feMerge>
    </filter>
  </defs>

  <!-- Background -->
  <rect width="1920" height="1080" fill="url(#bg)"/>

  <!-- Title -->
  <text x="960" y="90" font-family="Arial, sans-serif" font-size="84" font-weight="bold" fill="#ff79c6" text-anchor="middle" filter="url(#glow)">Parallel Execution</text>
  <text x="960" y="150" font-family="Arial, sans-serif" font-size="36" fill="#8be9fd" text-anchor="middle">Multiple agents working simultaneously</text>

  <!-- Main branch line -->
  <line x1="150" y1="350" x2="450" y2="350" stroke="#50fa7b" stroke-width="10" stroke-linecap="round"/>
  <line x1="1470" y1="350" x2="1770" y2="350" stroke="#50fa7b" stroke-width="10" stroke-linecap="round"/>

  <!-- Fork point -->
  <circle cx="450" cy="350" r="28" fill="#50fa7b" filter="url(#glow)"/>

  <!-- Merge point -->
  <circle cx="1470" cy="350" r="28" fill="#50fa7b" filter="url(#glow)"/>

  <!-- Branch 1 (top) - Users -->
  <path d="M 450 350 Q 550 220, 680 220 L 1240 220 Q 1370 220, 1470 350"
        stroke="#ff5555" stroke-width="8" fill="none" stroke-linecap="round"/>
  <rect x="820" y="170" width="280" height="120" rx="20" fill="#44475a" stroke="#ff5555" stroke-width="5"/>
  <text x="960" y="220" font-family="monospace" font-size="32" fill="#ff5555" text-anchor="middle">Agent 1</text>
  <text x="960" y="265" font-family="monospace" font-size="28" fill="#f8f8f2" text-anchor="middle">users.js</text>

  <!-- Branch 2 (middle) - Products -->
  <path d="M 450 350 L 680 350 L 1240 350 L 1470 350"
        stroke="#ffb86c" stroke-width="8" fill="none" stroke-linecap="round"/>
  <rect x="820" y="300" width="280" height="120" rx="20" fill="#44475a" stroke="#ffb86c" stroke-width="5"/>
  <text x="960" y="350" font-family="monospace" font-size="32" fill="#ffb86c" text-anchor="middle">Agent 2</text>
  <text x="960" y="395" font-family="monospace" font-size="28" fill="#f8f8f2" text-anchor="middle">products.js</text>

  <!-- Branch 3 (bottom) - Orders -->
  <path d="M 450 350 Q 550 480, 680 480 L 1240 480 Q 1370 480, 1470 350"
        stroke="#bd93f9" stroke-width="8" fill="none" stroke-linecap="round"/>
  <rect x="820" y="430" width="280" height="120" rx="20" fill="#44475a" stroke="#bd93f9" stroke-width="5"/>
  <text x="960" y="480" font-family="monospace" font-size="32" fill="#bd93f9" text-anchor="middle">Agent 3</text>
  <text x="960" y="525" font-family="monospace" font-size="28" fill="#f8f8f2" text-anchor="middle">orders.js</text>

  <!-- Main branch label -->
  <text x="280" y="310" font-family="monospace" font-size="32" fill="#50fa7b" text-anchor="middle">main</text>
  <text x="1640" y="310" font-family="monospace" font-size="32" fill="#50fa7b" text-anchor="middle">main</text>

  <!-- Arrow indicators -->
  <polygon points="430,350 480,320 480,380" fill="#50fa7b"/>
  <polygon points="1490,350 1440,320 1440,380" fill="#50fa7b"/>

  <!-- Bottom info boxes -->
  <g transform="translate(100, 620)">
    <rect x="0" y="0" width="540" height="240" rx="20" fill="#44475a" stroke="#6272a4" stroke-width="4"/>
    <text x="270" y="50" font-family="Arial, sans-serif" font-size="36" font-weight="bold" fill="#8be9fd" text-anchor="middle">Git Worktrees</text>
    <text x="270" y="105" font-family="monospace" font-size="28" fill="#f8f8f2" text-anchor="middle">/tmp/worktree-1</text>
    <text x="270" y="150" font-family="monospace" font-size="28" fill="#f8f8f2" text-anchor="middle">/tmp/worktree-2</text>
    <text x="270" y="195" font-family="monospace" font-size="28" fill="#f8f8f2" text-anchor="middle">/tmp/worktree-3</text>
  </g>

  <!-- Benefits box -->
  <g transform="translate(690, 620)">
    <rect x="0" y="0" width="540" height="240" rx="20" fill="#44475a" stroke="#6272a4" stroke-width="4"/>
    <text x="270" y="50" font-family="Arial, sans-serif" font-size="36" font-weight="bold" fill="#50fa7b" text-anchor="middle">Benefits</text>
    <circle cx="50" cy="105" r="10" fill="#50fa7b"/>
    <text x="80" y="113" font-family="Arial, sans-serif" font-size="28" fill="#f8f8f2">No file conflicts</text>
    <circle cx="50" cy="155" r="10" fill="#50fa7b"/>
    <text x="80" y="163" font-family="Arial, sans-serif" font-size="28" fill="#f8f8f2">Faster completion</text>
    <circle cx="50" cy="205" r="10" fill="#50fa7b"/>
    <text x="80" y="213" font-family="Arial, sans-serif" font-size="28" fill="#f8f8f2">Independent work</text>
  </g>

  <!-- Merge result box -->
  <g transform="translate(1280, 620)">
    <rect x="0" y="0" width="540" height="240" rx="20" fill="#44475a" stroke="#6272a4" stroke-width="4"/>
    <text x="270" y="50" font-family="Arial, sans-serif" font-size="36" font-weight="bold" fill="#ff79c6" text-anchor="middle">After Merge</text>
    <circle cx="50" cy="105" r="10" fill="#ff79c6"/>
    <text x="80" y="113" font-family="Arial, sans-serif" font-size="28" fill="#f8f8f2">All code combined</text>
    <circle cx="50" cy="155" r="10" fill="#ff79c6"/>
    <text x="80" y="163" font-family="Arial, sans-serif" font-size="28" fill="#f8f8f2">Tests verified</text>
    <circle cx="50" cy="205" r="10" fill="#ff79c6"/>
    <text x="80" y="213" font-family="Arial, sans-serif" font-size="28" fill="#f8f8f2">Ready for next</text>
  </g>

  <!-- Footer -->
  <text x="960" y="920" font-family="Arial, sans-serif" font-size="28" fill="#6272a4" text-anchor="middle">Each agent works in isolation, then changes merge back to main</text>
</svg>
